<svg width="20" height="21" viewBox="0 0 20 21" fill="none" xmlns="http://www.w3.org/2000/svg">
<path d="M9.09009 10C10.4162 10 11.6879 9.47322 12.6256 8.53553C13.5633 7.59785 14.0901 6.32608 14.0901 5C14.0901 3.67392 13.5633 2.40215 12.6256 1.46447C11.6879 0.526784 10.4162 0 9.09009 0C7.76401 0 6.49224 0.526784 5.55455 1.46447C4.61687 2.40215 4.09009 3.67392 4.09009 5C4.09009 6.32608 4.61687 7.59785 5.55455 8.53553C6.49224 9.47322 7.76401 10 9.09009 10Z" fill="#5961E0"/>
<path opacity="0.4" d="M9.09 12.5C4.08 12.5 0 15.86 0 20C0 20.28 0.22 20.5 0.5 20.5H17.68C17.96 20.5 18.18 20.28 18.18 20C18.18 15.86 14.1 12.5 9.09 12.5Z" fill="#5961E0"/>
<path d="M18.5199 12.7401C17.6199 11.8401 16.9099 12.1301 16.2999 12.7401L12.7589 16.2801C12.6189 16.4201 12.4889 16.6801 12.4589 16.8701L12.2689 18.2201C12.1989 18.7101 12.5389 19.0501 13.0289 18.9801L14.3789 18.7901C14.5689 18.7601 14.8389 18.6301 14.9689 18.4901L18.5089 14.9501C19.1289 14.3501 19.4189 13.6401 18.5189 12.7401H18.5199Z" fill="#5961E0"/>
</svg>
