<svg width="18" height="20" viewBox="0 0 18 20" fill="none" xmlns="http://www.w3.org/2000/svg">
<path d="M4.64 10.07C4.64 9.66 4.98 9.32 5.39 9.32H10.87V0.860001C10.8676 0.630917 10.7749 0.412039 10.612 0.250983C10.449 0.0899268 10.2291 -0.000275285 10 6.31134e-07C4.11 6.31134e-07 0 4.11 0 10C0 15.89 4.11 20 10 20C10.47 20 10.86 19.62 10.86 19.14V10.81H5.39C5.29177 10.8121 5.1941 10.7945 5.10279 10.7582C5.01149 10.7219 4.9284 10.6677 4.85845 10.5987C4.78851 10.5297 4.73313 10.4473 4.69561 10.3565C4.65808 10.2657 4.63917 10.1683 4.64 10.07Z" fill="#FAFAFA"/>
<path d="M17.304 9.54011L14.464 6.69011C14.3229 6.55063 14.1324 6.47241 13.934 6.47241C13.7356 6.47241 13.5452 6.55063 13.404 6.69011C13.114 6.98011 13.114 7.46011 13.404 7.75011L14.964 9.31011H10.864V10.8101H14.954L13.394 12.3701C13.104 12.6601 13.104 13.1401 13.394 13.4301C13.544 13.5801 13.734 13.6501 13.924 13.6501C14.114 13.6501 14.304 13.5801 14.454 13.4301L17.294 10.5801C17.594 10.3001 17.594 9.83011 17.304 9.54011Z" fill="#FAFAFA"/>
</svg>
