<svg width="19" height="20" viewBox="0 0 19 20" fill="none" xmlns="http://www.w3.org/2000/svg">
<path fill-rule="evenodd" clip-rule="evenodd" d="M2.375 0C1.06332 0 0 0.895416 0 2V18C0 19.1046 1.06332 20 2.375 20H16.625C17.9367 20 19 19.1046 19 18V2C19 0.895416 17.9367 0 16.625 0H2.375ZM4.75 2C3.43832 2 2.375 2.89542 2.375 4V6C2.375 7.10458 3.43832 8 4.75 8H14.25C15.5617 8 16.625 7.10458 16.625 6V4C16.625 2.89542 15.5617 2 14.25 2H4.75ZM2.53333 11C2.53333 10.4477 2.98104 10 3.53333 10H5.33333C5.88561 10 6.33333 10.4477 6.33333 11V12C6.33333 12.5523 5.88561 13 5.33333 13H3.53332C2.98104 13 2.53333 12.5523 2.53333 12V11ZM8.60001 10C8.04772 10 7.60001 10.4477 7.60001 11V12C7.60001 12.5523 8.04772 13 8.60001 13H10.4C10.9523 13 11.4 12.5523 11.4 12V11C11.4 10.4477 10.9523 10 10.4 10H8.60001ZM12.6667 11C12.6667 10.4477 13.1144 10 13.6667 10H15.4667C16.0189 10 16.4667 10.4477 16.4667 11V12C16.4667 12.5523 16.0189 13 15.4667 13H13.6667C13.1144 13 12.6667 12.5523 12.6667 12V11ZM3.53333 14C2.98104 14 2.53333 14.4477 2.53333 15V16C2.53333 16.5523 2.98104 17 3.53332 17H5.33333C5.88561 17 6.33333 16.5523 6.33333 16V15C6.33333 14.4477 5.88561 14 5.33333 14H3.53333ZM7.60001 15C7.60001 14.4477 8.04772 14 8.60001 14H10.4C10.9523 14 11.4 14.4477 11.4 15V16C11.4 16.5523 10.9523 17 10.4 17H8.60001C8.04772 17 7.60001 16.5523 7.60001 16V15ZM13.6667 14C13.1144 14 12.6667 14.4477 12.6667 15V16C12.6667 16.5523 13.1144 17 13.6667 17H15.4667C16.0189 17 16.4667 16.5523 16.4667 16V15C16.4667 14.4477 16.0189 14 15.4667 14H13.6667Z" fill="#5961E0"/>
</svg>
