<svg width="24" height="24" viewBox="0 0 24 24" fill="none" xmlns="http://www.w3.org/2000/svg">
<g clip-path="url(#clip0_0_1783)">
<path d="M20.19 14.06L19.06 12.18C18.81 11.77 18.59 10.98 18.59 10.5V8.62999C18.59 4.99999 15.64 2.04999 12.02 2.04999C8.38996 2.05999 5.43996 4.99999 5.43996 8.62999V10.49C5.43996 10.97 5.21996 11.76 4.97996 12.17L3.84996 14.05C3.41996 14.78 3.31996 15.61 3.58996 16.33C3.85996 17.06 4.46996 17.64 5.26996 17.9C6.34996 18.26 7.43996 18.52 8.54996 18.71C8.65996 18.73 8.76996 18.74 8.87996 18.76L9.31996 18.82C9.57996 18.86 9.83996 18.89 10.11 18.91C11.3705 19.0288 12.6394 19.0288 13.9 18.91C14.13 18.89 14.36 18.87 14.58 18.84C14.76 18.82 14.94 18.8 15.12 18.77C15.23 18.76 15.34 18.74 15.45 18.72C16.57 18.54 17.68 18.26 18.76 17.9C19.1336 17.7751 19.4746 17.5685 19.7583 17.2951C20.042 17.0218 20.2612 16.6887 20.4 16.32C20.68 15.57 20.6 14.75 20.19 14.06V14.06ZM12.75 9.99999C12.75 10.2016 12.6699 10.3949 12.5274 10.5374C12.3848 10.6799 12.1915 10.76 11.99 10.76C11.7884 10.76 11.5951 10.6799 11.4526 10.5374C11.31 10.3949 11.23 10.2016 11.23 9.99999V6.89999C11.23 6.69842 11.31 6.50511 11.4526 6.36259C11.5951 6.22006 11.7884 6.13999 11.99 6.13999C12.1915 6.13999 12.3848 6.22006 12.5274 6.36259C12.6699 6.50511 12.75 6.69842 12.75 6.89999V9.99999Z" fill="#5961E0"/>
<path d="M14.8299 20.01C14.6196 20.5922 14.2352 21.0954 13.7289 21.4515C13.2226 21.8075 12.6189 21.999 11.9999 22C11.2099 22 10.4299 21.68 9.87993 21.11C9.55993 20.81 9.31993 20.41 9.17993 20C9.30993 20.02 9.43993 20.03 9.57993 20.05C9.80993 20.08 10.0499 20.11 10.2899 20.13C10.8599 20.18 11.4399 20.21 12.0199 20.21C12.5899 20.21 13.1599 20.18 13.7199 20.13C13.9299 20.11 14.1399 20.1 14.3399 20.07L14.8299 20.01V20.01Z" fill="#5961E0"/>
</g>
<defs>
<clipPath id="clip0_0_1783">
<rect width="24" height="24" fill="white"/>
</clipPath>
</defs>
</svg>
