<svg width="24" height="24" viewBox="0 0 24 24" fill="none" xmlns="http://www.w3.org/2000/svg">
<path d="M12 0.75C9.77497 0.75 7.59989 1.4098 5.74984 2.64597C3.89979 3.88213 2.45785 5.63914 1.60636 7.69481C0.754875 9.75048 0.532087 12.0125 0.966171 14.1948C1.40025 16.3771 2.47171 18.3816 4.04505 19.955C5.61839 21.5283 7.62295 22.5998 9.80524 23.0338C11.9875 23.4679 14.2495 23.2451 16.3052 22.3936C18.3609 21.5422 20.1179 20.1002 21.354 18.2502C22.5902 16.4001 23.25 14.225 23.25 12C23.2466 9.01735 22.0603 6.15783 19.9512 4.04878C17.8422 1.93972 14.9827 0.753375 12 0.75ZM11.625 3.375C11.625 3.27554 11.6645 3.18016 11.7348 3.10984C11.8052 3.03951 11.9005 3 12 3C12.0995 3 12.1948 3.03951 12.2652 3.10984C12.3355 3.18016 12.375 3.27554 12.375 3.375V5.25C12.375 5.34946 12.3355 5.44484 12.2652 5.51516C12.1948 5.58549 12.0995 5.625 12 5.625C11.9005 5.625 11.8052 5.58549 11.7348 5.51516C11.6645 5.44484 11.625 5.34946 11.625 5.25V3.375ZM5.25001 12.375H3.37501C3.27555 12.375 3.18017 12.3355 3.10984 12.2652C3.03951 12.1948 3.00001 12.0995 3.00001 12C3.00001 11.9005 3.03951 11.8052 3.10984 11.7348C3.18017 11.6645 3.27555 11.625 3.37501 11.625H5.25001C5.34946 11.625 5.44484 11.6645 5.51517 11.7348C5.5855 11.8052 5.62501 11.9005 5.62501 12C5.62501 12.0995 5.5855 12.1948 5.51517 12.2652C5.44484 12.3355 5.34946 12.375 5.25001 12.375ZM12.375 20.625C12.375 20.7245 12.3355 20.8198 12.2652 20.8902C12.1948 20.9605 12.0995 21 12 21C11.9005 21 11.8052 20.9605 11.7348 20.8902C11.6645 20.8198 11.625 20.7245 11.625 20.625V18.75C11.625 18.6505 11.6645 18.5552 11.7348 18.4848C11.8052 18.4145 11.9005 18.375 12 18.375C12.0995 18.375 12.1948 18.4145 12.2652 18.4848C12.3355 18.5552 12.375 18.6505 12.375 18.75V20.625ZM16.6553 8.40525L12.5303 12.5303C12.3896 12.6709 12.1989 12.7498 12 12.7498C11.8011 12.7498 11.6104 12.6709 11.4698 12.5303L5.46976 6.53025C5.39812 6.46106 5.34099 6.37831 5.30168 6.2868C5.26237 6.1953 5.24168 6.09689 5.24082 5.9973C5.23995 5.89772 5.25893 5.79896 5.29664 5.70678C5.33435 5.61461 5.39004 5.53087 5.46046 5.46045C5.53088 5.39003 5.61462 5.33434 5.70679 5.29663C5.79896 5.25892 5.89772 5.23995 5.99731 5.24081C6.09689 5.24168 6.19531 5.26237 6.28681 5.30167C6.37831 5.34098 6.46107 5.39812 6.53026 5.46975L12 10.9391L15.5948 7.34475C15.7362 7.20813 15.9257 7.13254 16.1223 7.13424C16.319 7.13595 16.5071 7.21483 16.6461 7.35389C16.7852 7.49294 16.8641 7.68105 16.8658 7.8777C16.8675 8.07435 16.7919 8.2638 16.6553 8.40525ZM20.625 12.375H18.75C18.6506 12.375 18.5552 12.3355 18.4848 12.2652C18.4145 12.1948 18.375 12.0995 18.375 12C18.375 11.9005 18.4145 11.8052 18.4848 11.7348C18.5552 11.6645 18.6506 11.625 18.75 11.625H20.625C20.7245 11.625 20.8198 11.6645 20.8902 11.7348C20.9605 11.8052 21 11.9005 21 12C21 12.0995 20.9605 12.1948 20.8902 12.2652C20.8198 12.3355 20.7245 12.375 20.625 12.375Z" fill="#5961E0"/>
</svg>
