<svg width="24" height="24" viewBox="0 0 24 24" fill="none" xmlns="http://www.w3.org/2000/svg">
<path d="M12 12C13.3261 12 14.5979 11.4732 15.5355 10.5355C16.4732 9.59785 17 8.32608 17 7C17 5.67392 16.4732 4.40215 15.5355 3.46447C14.5979 2.52678 13.3261 2 12 2C10.6739 2 9.40215 2.52678 8.46447 3.46447C7.52678 4.40215 7 5.67392 7 7C7 8.32608 7.52678 9.59785 8.46447 10.5355C9.40215 11.4732 10.6739 12 12 12Z" fill="#5961E0"/>
<path opacity="0.4" d="M11.9999 14.5C6.98991 14.5 2.90991 17.86 2.90991 22C2.90991 22.28 3.12991 22.5 3.40991 22.5H20.5899C20.8699 22.5 21.0899 22.28 21.0899 22C21.0899 17.86 17.0099 14.5 11.9999 14.5Z" fill="#5961E0"/>
<path d="M21.4298 14.74C20.5298 13.84 19.8198 14.13 19.2098 14.74L15.6688 18.28C15.5288 18.42 15.3988 18.68 15.3688 18.87L15.1788 20.22C15.1088 20.71 15.4488 21.05 15.9388 20.98L17.2888 20.79C17.4788 20.76 17.7488 20.63 17.8788 20.49L21.4188 16.95C22.0388 16.35 22.3288 15.64 21.4288 14.74H21.4298Z" fill="#5961E0"/>
</svg>
