<svg width="22" height="24" viewBox="0 0 22 24" fill="none" xmlns="http://www.w3.org/2000/svg">
<path fill-rule="evenodd" clip-rule="evenodd" d="M2.18833 13.7871V13.5681C2.22045 12.9202 2.4281 12.2925 2.78986 11.7496C3.392 11.0975 3.8042 10.2983 3.98321 9.43598C3.98321 8.7695 3.98321 8.0935 4.04143 7.42703C4.34219 4.21842 7.51478 2 10.6486 2H10.7262C13.86 2 17.0325 4.21842 17.343 7.42703C17.4012 8.0935 17.343 8.7695 17.3915 9.43598C17.5729 10.3003 17.9847 11.1019 18.5849 11.7591C18.9493 12.2972 19.1573 12.9227 19.1864 13.5681V13.7776C19.2081 14.648 18.9083 15.4968 18.3423 16.1674C17.5945 16.9515 16.5796 17.4393 15.4899 17.5384C12.2945 17.8812 9.07053 17.8812 5.87512 17.5384C4.78664 17.435 3.77326 16.9479 3.02271 16.1674C2.4655 15.4963 2.16974 14.6526 2.18833 13.7871Z" fill="#5961E0"/>
<path d="M8.24243 20.8518C8.74171 21.4785 9.47489 21.884 10.2797 21.9788C11.0846 22.0735 11.8947 21.8495 12.5308 21.3564C12.7264 21.2106 12.9024 21.041 13.0547 20.8518" stroke="#5961E0" stroke-width="2" stroke-linecap="round" stroke-linejoin="round"/>
</svg>
