<svg width="25" height="24" viewBox="0 0 25 24" fill="none" xmlns="http://www.w3.org/2000/svg">
<path d="M9.99987 14.219H4.91987C4.30987 14.219 3.74987 14.529 3.42987 15.049C3.10987 15.559 3.07987 16.169 3.33987 16.709C4.58521 19.2431 6.77015 21.1912 9.42987 22.139C9.60987 22.199 9.80987 22.239 9.99987 22.239C10.4646 22.2353 10.9091 22.0484 11.2368 21.7188C11.5644 21.3893 11.7488 20.9437 11.7499 20.479L11.7599 15.979C11.7599 15.509 11.5799 15.069 11.2499 14.739C10.9173 14.4087 10.4685 14.222 9.99987 14.219Z" fill="#5961E0"/>
<path d="M23.4799 9.6C22.3599 4.68 18.0499 1.25 12.9999 1.25C7.94993 1.25 3.63993 4.68 2.51993 9.6C2.39993 10.12 2.51993 10.65 2.85993 11.07C3.19993 11.49 3.69993 11.73 4.23993 11.73H21.7699C22.0331 11.7331 22.2935 11.6763 22.5315 11.564C22.7694 11.4516 22.9787 11.2865 23.1435 11.0813C23.3082 10.8761 23.4241 10.6361 23.4824 10.3794C23.5407 10.1228 23.5399 9.85626 23.4799 9.6Z" fill="#5961E0"/>
<path d="M21.06 14.272L16 14.262C15.7698 14.2605 15.5416 14.3048 15.3286 14.3922C15.1156 14.4797 14.9221 14.6085 14.7593 14.7713C14.5965 14.9341 14.4677 15.1276 14.3803 15.3406C14.2928 15.5536 14.2486 15.7818 14.25 16.012L14.26 20.492C14.2611 20.9567 14.4455 21.4023 14.7731 21.7318C15.1008 22.0614 15.5453 22.2483 16.01 22.252C16.2 22.252 16.39 22.222 16.57 22.152C19.19 21.232 21.41 19.262 22.64 16.772C22.7681 16.5129 22.8279 16.2253 22.8139 15.9366C22.7999 15.6479 22.7125 15.3675 22.56 15.122C22.23 14.582 21.67 14.272 21.06 14.272Z" fill="#5961E0"/>
</svg>
