<svg width="24" height="24" viewBox="0 0 24 24" fill="none" xmlns="http://www.w3.org/2000/svg">
<path d="M3.06516 15.4476L3.06519 15.4476L3.06861 15.4421C3.25088 15.1459 3.56795 14.969 3.91987 14.969H8.99714C9.26827 14.9713 9.5278 15.0793 9.72042 15.2702C9.90677 15.457 10.0097 15.7047 10.0099 15.9783C10.0099 15.9785 10.0099 15.9788 10.0099 15.979L9.99987 20.4773C9.99927 20.7445 9.89328 21.0006 9.70492 21.19C9.5173 21.3787 9.26306 21.4861 8.99706 21.489C8.90782 21.4886 8.7929 21.4688 8.6737 21.4297C6.20264 20.5468 4.17265 18.736 3.01446 16.3812C2.86604 16.071 2.88445 15.7356 3.06516 15.4476Z" stroke="black" stroke-width="1.5"/>
<path d="M21.7486 9.76648L21.7496 9.77081C21.7837 9.91629 21.7841 10.0676 21.7511 10.2133C21.718 10.359 21.6522 10.4953 21.5586 10.6118C21.4651 10.7283 21.3463 10.822 21.2112 10.8858C21.0761 10.9496 20.9282 10.9818 20.7788 10.9801V10.98H20.7699H3.23993C2.92773 10.98 2.6414 10.8434 2.44286 10.5981C2.24864 10.3582 2.18242 10.0646 2.25072 9.76865L2.25122 9.76647C3.29326 5.18893 7.29886 2 11.9999 2C16.701 2 20.7066 5.18893 21.7486 9.76648ZM22.4824 10.3794C22.5407 10.1228 22.5399 9.85626 22.4799 9.6H1.51993C1.39993 10.12 1.51993 10.65 1.85993 11.07C2.19993 11.49 2.69993 11.73 3.23993 11.73H20.7699C21.0331 11.7331 21.2935 11.6763 21.5315 11.564C21.7694 11.4516 21.9787 11.2865 22.1435 11.0813C22.3082 10.8761 22.4241 10.6361 22.4824 10.3794Z" stroke="black" stroke-width="1.5"/>
<path d="M20.0586 15.022H20.06C20.4068 15.022 20.7253 15.1943 20.9201 15.5131L20.9201 15.5131L20.9229 15.5177C21.0082 15.6549 21.057 15.8116 21.0648 15.9729C21.0726 16.1343 21.0392 16.295 20.9676 16.4398L20.9676 16.4398C19.8242 18.7546 17.7561 20.5895 15.3216 21.4444L15.3098 21.4485L15.2982 21.453C15.2182 21.4841 15.1233 21.5017 15.013 21.502C14.747 21.4991 14.4926 21.3917 14.305 21.203C14.1166 21.0136 14.0106 20.7575 14.01 20.4903L14 16.0103L14 16.0072C13.9992 15.8763 14.0244 15.7465 14.0741 15.6254C14.1238 15.5043 14.1971 15.3942 14.2897 15.3016C14.3823 15.209 14.4923 15.1358 14.6134 15.086C14.7346 15.0363 14.8643 15.0112 14.9953 15.012L14.9986 15.012L20.0586 15.022Z" stroke="black" stroke-width="1.5"/>
</svg>
