<svg width="46" height="46" viewBox="0 0 46 46" fill="none" xmlns="http://www.w3.org/2000/svg">
<path d="M44.3043 46.0002H2.47883C1.55189 46.0002 0.783203 45.218 0.783203 44.2749C0.783203 43.3317 1.55189 42.5496 2.47883 42.5496H44.3043C45.2313 42.5496 46 43.3317 46 44.2749C46 45.218 45.2313 46.0002 44.3043 46.0002Z" fill="#5B63E0"/>
<path opacity="0.4" d="M42.8118 26.9065L26.466 43.5386C25.7078 44.3141 24.8067 44.9299 23.8144 45.3509C22.8221 45.7718 21.758 45.9896 20.6829 45.9917C19.6078 45.9938 18.5429 45.7803 17.549 45.3633C16.555 44.9463 15.6517 44.3341 14.8905 43.5616L4.46802 32.9566L32.412 4.52344L42.8344 15.1284C43.5937 15.9029 44.1954 16.8221 44.6052 17.8334C45.015 18.8447 45.2248 19.9283 45.2227 21.0222C45.2206 22.1161 45.0066 23.1989 44.5929 24.2086C44.1793 25.2182 43.574 26.135 42.8118 26.9065Z" fill="#5B63E0"/>
<path d="M32.4122 4.52352L4.44568 32.9567L2.38832 30.8633C1.6291 30.0888 1.02738 29.1696 0.617576 28.1583C0.20777 27.147 -0.00208417 26.0634 1.56029e-05 24.9695C0.00211538 23.8756 0.216128 22.7928 0.629813 21.7831C1.0435 20.7735 1.64874 19.8567 2.41093 19.0852L18.7568 2.45314C19.515 1.67761 20.416 1.06177 21.4083 0.64084C22.4006 0.219912 23.4648 0.00215241 24.5398 1.58761e-05C25.6149 -0.00212066 26.6799 0.211408 27.6738 0.628389C28.6677 1.04537 29.5711 1.65762 30.3323 2.43013L32.4122 4.52352V4.52352Z" fill="#5B63E0"/>
<path d="M25.4036 35.8783L22.3514 38.9839C21.7184 39.628 20.701 39.628 20.068 38.9839C19.9175 38.8316 19.798 38.6506 19.7165 38.4513C19.635 38.2519 19.593 38.0381 19.593 37.8221C19.593 37.6062 19.635 37.3924 19.7165 37.193C19.798 36.9937 19.9175 36.8127 20.068 36.6604L23.1201 33.5549C23.7532 32.9107 24.7705 32.9107 25.4036 33.5549C26.0366 34.199 26.0366 35.2342 25.4036 35.8783Z" fill="#5B63E0"/>
<path d="M35.3061 25.8024L29.2245 31.9905C28.5914 32.6346 27.5741 32.6346 26.941 31.9905C26.7905 31.8383 26.6711 31.6573 26.5895 31.4579C26.508 31.2585 26.4661 31.0447 26.4661 30.8288C26.4661 30.6128 26.508 30.399 26.5895 30.1997C26.6711 30.0003 26.7905 29.8193 26.941 29.6671L33.0227 23.4789C33.6557 22.8348 34.6731 22.8348 35.3061 23.4789C35.9166 24.1231 35.9166 25.1582 35.3061 25.8024V25.8024Z" fill="#5B63E0"/>
</svg>
