<svg width="46" height="46" viewBox="0 0 46 46" fill="none" xmlns="http://www.w3.org/2000/svg">
<path opacity="0.4" d="M23 46C35.7029 46 46 35.7029 46 23C46 10.2971 35.7029 0 23 0C10.2971 0 0 10.2971 0 23C0 35.7029 10.2971 46 23 46Z" fill="#5961E0"/>
<path d="M34.3852 36.11C33.9482 36.11 33.5112 35.949 33.1662 35.604C32.8454 35.2794 32.6655 34.8414 32.6655 34.385C32.6655 33.9286 32.8454 33.4906 33.1662 33.166C34.5051 31.8339 35.5664 30.2496 36.2889 28.5046C37.0114 26.7596 37.3806 24.8886 37.3752 23C37.3752 19.159 35.8802 15.548 33.1662 12.834C32.8454 12.5094 32.6655 12.0714 32.6655 11.615C32.6655 11.1586 32.8454 10.7206 33.1662 10.396C33.8332 9.729 34.9372 9.729 35.6042 10.396C37.2636 12.0481 38.5794 14.0124 39.4755 16.1758C40.3716 18.3391 40.8303 20.6584 40.8252 23C40.8252 27.761 38.9622 32.246 35.6042 35.604C35.2592 35.949 34.8222 36.11 34.3852 36.11Z" fill="#5961E0"/>
<path d="M11.615 36.11C11.178 36.11 10.741 35.949 10.396 35.604C8.73664 33.9519 7.4209 31.9876 6.52479 29.8242C5.62867 27.6609 5.16993 25.3416 5.17505 23C5.17505 18.239 7.03805 13.754 10.396 10.396C11.063 9.729 12.167 9.729 12.834 10.396C13.501 11.063 13.501 12.167 12.834 12.834C11.4952 14.1661 10.4338 15.7505 9.71135 17.4954C8.98887 19.2404 8.61965 21.1114 8.62505 23C8.62505 26.841 10.12 30.452 12.834 33.166C13.501 33.833 13.501 34.937 12.834 35.604C12.489 35.949 12.052 36.11 11.615 36.11Z" fill="#5961E0"/>
<path d="M24.6149 16.3326V12.0863H26.2595V16.3326H24.6149ZM21.3504 16.3326V12.0863H22.9949V16.3326H21.3504ZM24.6149 34.4963V30.2499H26.2595V34.4963H24.6149ZM21.3504 34.4963V30.2499H22.9949V34.4963H21.3504ZM18.8222 32.0908V14.5654H23.044C24.4513 14.5654 25.6213 14.7126 26.554 15.0072C27.5031 15.2854 28.2149 15.7517 28.6895 16.4063C29.1804 17.0445 29.4258 17.9117 29.4258 19.0081C29.4258 19.6626 29.344 20.2599 29.1804 20.7999C29.0167 21.3399 28.7795 21.7817 28.4686 22.1254C28.1576 22.469 27.7813 22.6899 27.3395 22.7881V22.9108C27.814 23.0254 28.2395 23.2299 28.6158 23.5245C28.9922 23.819 29.2949 24.2445 29.524 24.8008C29.7531 25.3572 29.8676 26.0935 29.8676 27.0099C29.8676 28.0735 29.6386 28.9899 29.1804 29.759C28.7222 30.5117 28.0595 31.0926 27.1922 31.5017C26.3413 31.8945 25.3267 32.0908 24.1486 32.0908H18.8222ZM23.4613 21.5117C24.2795 21.5117 24.844 21.3399 25.1549 20.9963C25.4658 20.6526 25.6213 20.1535 25.6213 19.499C25.6213 18.8281 25.4331 18.3454 25.0567 18.0508C24.6804 17.7563 24.0831 17.609 23.2649 17.609H22.5286V21.5117H23.4613ZM22.5286 24.4572V29.0226H23.7313C24.5822 29.0226 25.1713 28.8099 25.4986 28.3845C25.8422 27.9426 26.014 27.3617 26.014 26.6417C26.014 26.1999 25.9404 25.8154 25.7931 25.4881C25.6458 25.1608 25.3922 24.9072 25.0322 24.7272C24.6886 24.5472 24.214 24.4572 23.6086 24.4572H22.5286Z" fill="#5961E0"/>
</svg>
