<svg width="375" height="772" viewBox="0 0 375 772" fill="none" xmlns="http://www.w3.org/2000/svg">
<path d="M26.1408 664.9C209.054 370.492 410.517 -113.366 -246.934 306.471L26.1408 664.9Z" fill="white"/>
<path d="M-64.4497 694.129C118.463 399.721 357.892 -34.304 -299.559 385.532L-64.4497 694.129Z" fill="#51D9A5"/>
<path d="M-147.166 726.793C45.1143 444.679 299.743 30.6046 -352.812 456.868L-147.166 726.793Z" fill="white"/>
<path d="M-126.124 641.85C-8.70109 453.802 145.104 176.641 -275.613 445.635L-126.124 641.85Z" fill="#B953DD"/>
<ellipse rx="1.28708" ry="1.30515" transform="matrix(0.795446 -0.606024 -0.606024 -0.795446 81.3398 230.291)" fill="white"/>
<ellipse rx="1.28708" ry="1.30515" transform="matrix(0.795446 -0.606024 -0.606024 -0.795446 355.658 389.651)" fill="white"/>
<ellipse rx="1.28708" ry="1.30515" transform="matrix(0.795446 -0.606024 -0.606024 -0.795446 274.311 18.4626)" fill="white"/>
<ellipse rx="1.28708" ry="1.30515" transform="matrix(0.795446 -0.606024 -0.606024 -0.795446 214.567 420.027)" fill="white"/>
<ellipse rx="1.28708" ry="1.30515" transform="matrix(0.795446 -0.606024 -0.606024 -0.795446 354.679 175.884)" fill="white"/>
<ellipse rx="1.28708" ry="1.30515" transform="matrix(0.795446 -0.606024 -0.606024 -0.795446 215.088 329.387)" fill="white"/>
<ellipse cx="96.9678" cy="187.62" rx="0.965312" ry="0.978859" transform="rotate(142.697 96.9678 187.62)" fill="#161616"/>
<ellipse cx="36.8706" cy="628.012" rx="0.965312" ry="0.978859" transform="rotate(142.697 36.8706 628.012)" fill="#161616"/>
<ellipse cx="142.349" cy="522.22" rx="11.262" ry="11.42" transform="rotate(142.697 142.349 522.22)" fill="white"/>
<ellipse rx="16.4332" ry="16.618" transform="matrix(-0.946857 0.321656 -0.329512 -0.944152 120.022 326.971)" fill="white"/>
<path d="M125.497 342.661C134.091 339.741 138.695 330.607 135.581 321.685C134.016 317.199 131.985 314.609 127.857 312.265C128.609 314.418 119.271 343.399 119.271 343.399C119.271 343.399 120.921 344.215 125.497 342.661Z" fill="#51DAA6"/>
<ellipse cx="71.82" cy="156.736" rx="2.2524" ry="2.284" transform="rotate(142.697 71.82 156.736)" fill="#161616"/>
<ellipse cx="30.5293" cy="309.611" rx="1.60885" ry="1.63143" transform="rotate(142.697 30.5293 309.611)" fill="#161616"/>
<ellipse cx="72.9483" cy="490.594" rx="2.2524" ry="2.284" transform="rotate(142.697 72.9483 490.594)" fill="#FF8A00"/>
<rect width="0.975845" height="0.984827" rx="0.265094" transform="matrix(-0.468665 0.883376 -0.878406 -0.477915 80.9185 398.581)" fill="white"/>
<rect width="1.95754" height="1.97555" rx="0.531777" transform="matrix(-0.468665 0.883376 -0.878406 -0.477915 114.544 125.207)" fill="white"/>
<rect width="1.70216" height="1.71005" rx="0.481997" transform="matrix(-0.999601 0.0282491 -0.0413862 -0.999143 159.883 301.277)" fill="#161616"/>
<rect width="2.02382" height="2.03758" rx="0.619105" transform="matrix(-0.993575 0.113173 -0.125264 -0.992124 29.7087 209.796)" fill="#161616"/>
<path d="M101.075 274.053C100.827 273.939 100.68 273.68 100.709 273.41L100.821 272.372C100.85 272.097 101.056 271.873 101.329 271.819L102.337 271.62C102.606 271.567 102.88 271.692 103.015 271.931L103.537 272.85C103.672 273.089 103.639 273.386 103.454 273.589L102.763 274.346C102.576 274.551 102.277 274.611 102.025 274.494L101.075 274.053Z" fill="white"/>
<path d="M91.4672 588.051C91.2497 588.218 90.9471 588.224 90.7186 588.066L89.8589 587.472C89.6318 587.315 89.5294 587.032 89.6048 586.769L89.8923 585.769C89.9681 585.505 90.206 585.323 90.4814 585.317L91.5158 585.295C91.7912 585.289 92.0412 585.461 92.135 585.722L92.4905 586.708C92.5838 586.967 92.5009 587.255 92.2849 587.421L91.4672 588.051Z" fill="white"/>
<path d="M142.667 458.801C142.449 458.968 142.147 458.975 141.918 458.817L141.059 458.223C140.832 458.066 140.729 457.782 140.805 457.519L141.092 456.519C141.168 456.255 141.406 456.073 141.681 456.067L142.715 456.045C142.991 456.039 143.241 456.212 143.335 456.472L143.69 457.459C143.784 457.718 143.701 458.005 143.485 458.172L142.667 458.801Z" fill="white"/>
<path d="M191.625 210.365C191.455 210.496 191.219 210.501 191.041 210.377L190.37 209.914C190.193 209.792 190.113 209.57 190.172 209.366L190.396 208.586C190.456 208.38 190.641 208.238 190.856 208.233L191.662 208.216C191.877 208.212 192.072 208.346 192.145 208.549L192.423 209.318C192.495 209.52 192.431 209.745 192.262 209.874L191.625 210.365Z" fill="#161616"/>
<path d="M147.709 176.675C147.572 176.933 147.204 176.941 147.049 176.689L146.426 175.679C146.272 175.429 146.444 175.108 146.737 175.102L147.913 175.077C148.206 175.071 148.4 175.384 148.262 175.641L147.709 176.675Z" fill="#161616"/>
</svg>
