<svg width="375" height="446" viewBox="0 0 375 446" fill="none" xmlns="http://www.w3.org/2000/svg">
<path d="M581.65 -33C257.44 88.7396 -196.453 348.129 581.65 411.768V-33Z" fill="white"/>
<path d="M671.504 -1.76025C347.295 119.979 -106.598 317.532 671.504 381.172V-1.76025Z" fill="#52DDA8"/>
<path d="M757.173 22.0728C432.964 128.556 -20.93 301.353 757.173 357.018V22.0728Z" fill="white"/>
<path d="M688.896 76.1792C481.343 153.585 190.77 279.194 688.896 319.658V76.1792Z" fill="#B953DD"/>
<circle r="1.28825" transform="matrix(-1 0 0 1 274.08 275.214)" fill="white"/>
<circle r="1.28825" transform="matrix(-1 0 0 1 283.098 46.5495)" fill="white"/>
<circle r="1.28825" transform="matrix(-1 0 0 1 23.4548 154.426)" fill="white"/>
<circle r="1.28825" transform="matrix(-1 0 0 1 227.703 117.403)" fill="white"/>
<circle cx="235.754" cy="299.368" r="0.966187" fill="#161616"/>
<circle cx="366.512" cy="344.457" r="0.966187" fill="#161616"/>
<circle cx="301.926" cy="176.167" r="16.4252" transform="rotate(18.3001 301.926 176.167)" fill="white"/>
<path d="M307.084 160.573C298.471 157.724 289.264 162.142 286.332 171.01C284.857 175.468 284.903 178.717 286.767 183.026C287.475 180.886 312.489 163.717 312.489 163.717C312.489 163.717 311.67 162.09 307.084 160.573Z" fill="#51DAA6"/>
<circle cx="237.043" cy="338.66" r="2.25444" fill="#161616"/>
<circle cx="362.647" cy="243.329" r="1.61031" fill="#161616"/>
<rect x="183.902" y="337.858" width="1.95458" height="1.95458" rx="0.531777" transform="rotate(-24.4476 183.902 337.858)" fill="white"/>
<rect x="254.605" y="172.496" width="1.69572" height="1.69572" rx="0.481997" transform="rotate(35.3063 254.605 172.496)" fill="#161616"/>
<rect x="302.755" y="322.19" width="2.01834" height="2.01834" rx="0.619105" transform="rotate(30.4542 302.755 322.19)" fill="#161616"/>
<path d="M284.908 229.04C285.038 229.283 284.997 229.581 284.806 229.78L284.094 230.521C283.904 230.72 283.607 230.773 283.359 230.653L282.434 230.205C282.186 230.085 282.044 229.82 282.081 229.547L282.221 228.528C282.259 228.256 282.468 228.038 282.739 227.99L283.751 227.808C284.021 227.76 284.293 227.891 284.423 228.133L284.908 229.04Z" fill="white"/>
<path d="M363.861 59.1148C364.136 59.1134 364.381 59.2894 364.467 59.5507L364.79 60.527C364.876 60.7883 364.784 61.0754 364.562 61.2382L363.733 61.8467C363.512 62.0095 363.21 62.011 362.987 61.8504L362.152 61.25C361.929 61.0894 361.834 60.8032 361.918 60.5411L362.231 59.5616C362.315 59.2995 362.557 59.1212 362.833 59.1198L363.861 59.1148Z" fill="white"/>
<path d="M327.146 405.654C327.421 405.653 327.666 405.828 327.752 406.09L328.075 407.066C328.161 407.327 328.069 407.614 327.847 407.777L327.018 408.386C326.797 408.549 326.495 408.55 326.272 408.389L325.437 407.789C325.214 407.628 325.119 407.342 325.203 407.08L325.516 406.101C325.599 405.839 325.842 405.66 326.118 405.659L327.146 405.654Z" fill="white"/>
<path d="M174.188 224.888C174.403 224.887 174.593 225.024 174.661 225.228L174.912 225.99C174.98 226.193 174.908 226.417 174.735 226.544L174.089 227.019C173.916 227.146 173.681 227.147 173.506 227.022L172.855 226.553C172.681 226.428 172.607 226.205 172.673 226.001L172.917 225.237C172.982 225.032 173.172 224.893 173.386 224.892L174.188 224.888Z" fill="#161616"/>
<path d="M188.715 277.61C188.982 277.489 189.28 277.703 189.25 277.995L189.134 279.153C189.105 279.444 188.771 279.595 188.533 279.424L187.589 278.744C187.351 278.573 187.387 278.209 187.654 278.088L188.715 277.61Z" fill="#161616"/>
</svg>
