<svg width="20" height="20" viewBox="0 0 20 20" fill="none" xmlns="http://www.w3.org/2000/svg">
<path fill-rule="evenodd" clip-rule="evenodd" d="M14.6857 0H5.31429C2.04762 0 0 2.31208 0 5.58516V14.4148C0 17.6879 2.0381 20 5.31429 20H14.6857C17.9619 20 20 17.6879 20 14.4148V5.58516C20 2.31208 17.9619 0 14.6857 0ZM9.99995 3.3999C10.5522 3.3999 11 3.84762 11 4.3999V8.99995H15.6C16.1523 8.99995 16.6 9.44767 16.6 9.99995C16.6 10.5522 16.1523 11 15.6 11H11V15.5999C11 16.1522 10.5522 16.5999 9.99995 16.5999C9.44767 16.5999 8.99995 16.1522 8.99995 15.5999V11H4.40002C3.84774 11 3.40002 10.5522 3.40002 9.99995C3.40002 9.44767 3.84774 8.99995 4.40002 8.99995H8.99995V4.3999C8.99995 3.84762 9.44767 3.3999 9.99995 3.3999Z" fill="white"/>
</svg>
