<svg width="375" height="478" viewBox="0 0 375 478" fill="none" xmlns="http://www.w3.org/2000/svg">
<path d="M-285.79 260.305C60.7666 254.628 576.63 161.944 -132.365 -163.373L-285.79 260.305Z" fill="white"/>
<path d="M-359.423 199.979C-12.8664 194.302 481.666 160.522 -227.328 -164.795L-359.423 199.979Z" fill="#51D9A5"/>
<path d="M-431.679 148.134C-90.3847 156.989 395.609 146.792 -316.138 -170.928L-431.679 148.134Z" fill="white"/>
<path d="M-348.875 119.819C-127.199 116.69 189.095 95.8838 -264.886 -112.114L-348.875 119.819Z" fill="#B953DD"/>
<ellipse rx="1.28708" ry="1.30515" transform="matrix(0.940249 0.340489 0.340489 -0.940249 109.46 71.3356)" fill="white"/>
<ellipse rx="1.28708" ry="1.30515" transform="matrix(0.940249 0.340489 0.340489 -0.940249 124.057 388.246)" fill="white"/>
<ellipse rx="1.28708" ry="1.30515" transform="matrix(0.940249 0.340489 0.340489 -0.940249 22.1103 286.089)" fill="white"/>
<ellipse rx="1.28708" ry="1.30515" transform="matrix(0.940249 0.340489 0.340489 -0.940249 303.231 271.653)" fill="white"/>
<ellipse rx="1.28708" ry="1.30515" transform="matrix(0.940249 0.340489 0.340489 -0.940249 98.589 237.439)" fill="white"/>
<ellipse cx="153.795" cy="61.3637" rx="0.965312" ry="0.978859" transform="rotate(-160.093 153.795 61.3637)" fill="#161616"/>
<ellipse rx="16.4332" ry="16.618" transform="matrix(-0.783193 -0.621779 0.61525 -0.788332 49.1351 156.212)" fill="white"/>
<path d="M38.9109 169.313C46.0189 174.956 56.1917 173.88 62.0054 166.43C64.9285 162.685 66.0062 159.575 65.7414 154.835C64.3381 156.633 34.9179 164.479 34.9179 164.479C34.9179 164.479 35.1255 166.308 38.9109 169.313Z" fill="#51DAA6"/>
<ellipse cx="166.139" cy="23.4972" rx="2.2524" ry="2.284" transform="rotate(-160.093 166.139 23.4972)" fill="#161616"/>
<ellipse cx="15.2619" cy="71.5789" rx="1.60885" ry="1.63143" transform="rotate(-160.093 15.2619 71.5789)" fill="#161616"/>
<rect width="1.95754" height="1.97555" rx="0.531777" transform="matrix(-0.99643 0.0844279 -0.0739603 -0.997261 215.782 42.3379)" fill="white"/>
<rect width="1.95754" height="1.97555" rx="0.531777" transform="matrix(-0.99643 0.0844279 -0.0739603 -0.997261 333.433 424.329)" fill="white"/>
<rect width="1.70216" height="1.71005" rx="0.481997" transform="matrix(-0.565105 -0.825019 0.81752 -0.575901 92.3225 175.807)" fill="#161616"/>
<rect width="2.02382" height="2.03758" rx="0.619105" transform="matrix(-0.633233 -0.773961 0.766193 -0.642611 98.7272 16.832)" fill="#161616"/>
<path d="M83.3591 111.626C83.3214 111.356 83.4595 111.092 83.7023 110.97L84.6349 110.502C84.8825 110.378 85.1822 110.429 85.3751 110.629L86.0882 111.369C86.2788 111.567 86.3216 111.864 86.1944 112.107L85.7041 113.044C85.577 113.287 85.3085 113.42 85.0385 113.375L84.0275 113.204C83.7541 113.157 83.542 112.939 83.5036 112.663L83.3591 111.626Z" fill="white"/>
<path d="M185.938 153.255C185.737 153.184 185.605 152.988 185.612 152.771L185.638 151.957C185.645 151.742 185.788 151.555 185.992 151.493L186.769 151.259C186.974 151.198 187.194 151.276 187.314 151.455L187.765 152.123C187.885 152.302 187.878 152.538 187.747 152.71L187.25 153.359C187.12 153.53 186.896 153.597 186.696 153.526L185.938 153.255Z" fill="#161616"/>
<path d="M190.476 98.0923C190.185 98.1161 189.98 97.8115 190.107 97.545L190.619 96.4742C190.746 96.2085 191.109 96.1799 191.272 96.4226L191.93 97.3978C192.094 97.6405 191.936 97.9729 191.646 97.9966L190.476 98.0923Z" fill="#161616"/>
</svg>
