<svg width="46" height="41" viewBox="0 0 46 41" fill="none" xmlns="http://www.w3.org/2000/svg">
<path d="M42.5745 33.1003V38.9726H3.42554V33.1003C3.42554 32.0237 4.30639 31.1428 5.38298 31.1428H40.617C41.6936 31.1428 42.5745 32.0237 42.5745 33.1003Z" fill="#5961E0"/>
<path opacity="0.6" d="M15.1702 17.4407H7.34042V31.1428H15.1702V17.4407Z" fill="#5961E0"/>
<path opacity="0.4" d="M23 17.4407H15.1702V31.1428H23V17.4407Z" fill="#5961E0"/>
<path opacity="0.6" d="M30.8298 17.4407H23V31.1428H30.8298V17.4407Z" fill="#5961E0"/>
<path opacity="0.4" d="M38.6596 17.4407H30.8298V31.1428H38.6596V17.4407Z" fill="#5961E0"/>
<path d="M44.5319 40.4406H1.46809C0.665532 40.4406 0 39.775 0 38.9725C0 38.1699 0.665532 37.5044 1.46809 37.5044H44.5319C45.3345 37.5044 46 38.1699 46 38.9725C46 39.775 45.3345 40.4406 44.5319 40.4406Z" fill="#5961E0"/>
<path d="M41.3413 7.16426L23.7243 0.117447C23.3328 -0.0391489 22.6672 -0.0391489 22.2757 0.117447L4.65873 7.16426C3.97362 7.4383 3.42554 8.24085 3.42554 8.98468V15.4834C3.42554 16.56 4.30639 17.4409 5.38298 17.4409H40.617C41.6936 17.4409 42.5745 16.56 42.5745 15.4834V8.98468C42.5745 8.24085 42.0264 7.4383 41.3413 7.16426ZM23 12.5472C21.3753 12.5472 20.0638 11.2357 20.0638 9.61106C20.0638 7.98638 21.3753 6.67489 23 6.67489C24.6247 6.67489 25.9362 7.98638 25.9362 9.61106C25.9362 11.2357 24.6247 12.5472 23 12.5472Z" fill="#5961E0"/>
</svg>
