<svg width="49" height="46" viewBox="0 0 49 46" fill="none" xmlns="http://www.w3.org/2000/svg">
<path opacity="0.4" d="M12.0246 38.4788H21.6443L32.3462 45.5974C32.7074 45.8381 33.1272 45.9763 33.5607 45.9972C33.9943 46.0181 34.4254 45.9209 34.808 45.716C35.1907 45.5111 35.5105 45.2062 35.7335 44.8337C35.9564 44.4613 36.0741 44.0353 36.0739 43.6013V38.4788C43.2886 38.4788 48.0985 33.6689 48.0985 26.4542V12.0246C48.0985 4.80985 43.2886 0 36.0739 0H12.0246C4.80985 0 0 4.80985 0 12.0246V26.4542C0 33.6689 4.80985 38.4788 12.0246 38.4788Z" fill="#5961E0"/>
<path d="M11.1985 22.2552L9.04825 20.7448L11.521 17.6709L8 16.7699L8.83322 14.3849L12.3005 15.7629L12.0586 12H14.6658L14.4239 15.7629L17.8912 14.3849L18.7244 16.7699L15.1765 17.6709L17.6761 20.7448L15.5259 22.2552L13.3487 18.8103L11.1985 22.2552Z" fill="#5961E0"/>
<path d="M27.1791 31L27.8242 26.2301H25.5127V23.3682H28.2543L28.7112 20.0823H26.319V17.2204H29.1144L29.7863 12.4505H32.7698L32.0978 17.2204H34.8663L35.5382 12.4505H38.5486L37.8766 17.2204H40V20.0823H37.4735L37.0165 23.3682H39.1937V26.2301H36.5865L35.9145 31H32.9311L33.603 26.2301H30.8346L30.1626 31H27.1791ZM31.2377 23.3682H34.0062L34.4631 20.0823H31.6947L31.2377 23.3682Z" fill="#5961E0"/>
</svg>
